{
  "accessors": [
    {
      "bufferView": 2,
      "componentType": 5126,
      "count": 65532,
      "max": [
        26.139869689941406,
        24.579553604125977,
        13.896183967590332
      ],
      "min": [
        -11.58530330657959,
        12.102443695068359,
        -10.921891212463379
      ],
      "type": "VEC3"
    },
    {
      "bufferView": 2,
      "byteOffset": 786384,
      "componentType": 5126,
      "count": 65532,
      "max": [
        0.99997705221176147,
        0.99990791082382202,
        0.99999880790710449
      ],
      "min": [
        -0.99988806247711182,
        -0.9999992847442627,
        -0.99985599517822266
      ],
      "type": "VEC3"
    },
    {
      "bufferView": 3,
      "componentType": 5126,
      "count": 65532,
      "max": [
        0.99967050552368164,
        0.99985122680664062,
        0.99937963485717773,
        1
      ],
      "min": [
        -0.99999606609344482,
        -0.99963319301605225,
        -0.9999699592590332,
        -1
      ],
      "type": "VEC4"
    },
    {
      "bufferView": 3,
      "byteOffset": 1048512,
      "componentType": 5126,
      "count": 65532,
      "max": [
        0.99607843160629272,
        0.98823529481887817,
        0.99215686321258545,
        1
      ],
      "min": [
        0.039215687662363052,
        0.039215687662363052,
        0.027450980618596077,
        1
      ],
      "type": "VEC4"
    },
    {
      "bufferView": 1,
      "componentType": 5126,
      "count": 65532,
      "max": [
        1,
        0.99923402070999146
      ],
      "min": [
        0.0030169999226927757,
        0.000155999994603917
      ],
      "type": "VEC2"
    },
    {
      "bufferView": 0,
      "componentType": 5125,
      "count": 321459,
      "max": [
        65531
      ],
      "min": [
        0
      ],
      "type": "SCALAR"
    },
    {
      "bufferView": 2,
      "byteOffset": 1572768,
      "componentType": 5126,
      "count": 65532,
      "max": [
        26.0006103515625,
        23.892276763916016,
        13.90842342376709
      ],
      "min": [
        14.391661643981934,
        12.094955444335938,
        -10.77704906463623
      ],
      "type": "VEC3"
    },
    {
      "bufferView": 2,
      "byteOffset": 2359152,
      "componentType": 5126,
      "count": 65532,
      "max": [
        0.99989199638366699,
        0.99831086397171021,
        0.99999791383743286
      ],
      "min": [
        -0.99997788667678833,
        -0.99999988079071045,
        -0.99998027086257935
      ],
      "type": "VEC3"
    },
    {
      "bufferView": 3,
      "byteOffset": 2097024,
      "componentType": 5126,
      "count": 65532,
      "max": [
        0.99995040893554688,
        0.99997007846832275,
        0.99992960691452026,
        1
      ],
      "min": [
        -0.99997448921203613,
        -0.99968475103378296,
        -0.99999666213989258,
        -1
      ],
      "type": "VEC4"
    },
    {
      "bufferView": 3,
      "byteOffset": 3145536,
      "componentType": 5126,
      "count": 65532,
      "max": [
        0.99607843160629272,
        0.98823529481887817,
        0.99215686321258545,
        1
      ],
      "min": [
        0.023529412224888802,
        0.011764706112444401,
        0.0039215688593685627,
        1
      ],
      "type": "VEC4"
    },
    {
      "bufferView": 1,
      "byteOffset": 524256,
      "componentType": 5126,
      "count": 65532,
      "max": [
        0.99908101558685303,
        0.99553197622299194
      ],
      "min": [
        0.0098759997636079788,
        0.00080799998249858618
      ],
      "type": "VEC2"
    },
    {
      "bufferView": 0,
      "byteOffset": 1285836,
      "componentType": 5125,
      "count": 309408,
      "max": [
        65531
      ],
      "min": [
        0
      ],
      "type": "SCALAR"
    },
    {
      "bufferView": 2,
      "byteOffset": 3145536,
      "componentType": 5126,
      "count": 65532,
      "max": [
        23.942935943603516,
        23.892276763916016,
        13.960906982421875
      ],
      "min": [
        6.5536308288574219,
        12.170259475708008,
        -10.709321022033691
      ],
      "type": "VEC3"
    },
    {
      "bufferView": 2,
      "byteOffset": 3931920,
      "componentType": 5126,
      "count": 65532,
      "max": [
        0.99792677164077759,
        0.9967803955078125,
        0.99999809265136719
      ],
      "min": [
        -0.99983090162277222,
        -0.99999725818634033,
        -0.99992436170578003
      ],
      "type": "VEC3"
    },
    {
      "bufferView": 3,
      "byteOffset": 4194048,
      "componentType": 5126,
      "count": 65532,
      "max": [
        0.9999544620513916,
        0.99992978572845459,
        0.9930691123008728,
        1
      ],
      "min": [
        -0.99983704090118408,
        -0.99899202585220337,
        -0.99999654293060303,
        -1
      ],
      "type": "VEC4"
    },
    {
      "bufferView": 3,
      "byteOffset": 5242560,
      "componentType": 5126,
      "count": 65532,
      "max": [
        0.99215686321258545,
        0.9843137264251709,
        0.95686274766921997,
        1
      ],
      "min": [
        0.023529412224888802,
        0.023529412224888802,
        0.0078431377187371254,
        1
      ],
      "type": "VEC4"
    },
    {
      "bufferView": 1,
      "byteOffset": 1048512,
      "componentType": 5126,
      "count": 65532,
      "max": [
        0.95784002542495728,
        0.99872702360153198
      ],
      "min": [
        0.009926999919116497,
        0.011788000352680683
      ],
      "type": "VEC2"
    },
    {
      "bufferView": 0,
      "byteOffset": 2523468,
      "componentType": 5125,
      "count": 322146,
      "max": [
        65531
      ],
      "min": [
        0
      ],
      "type": "SCALAR"
    },
    {
      "bufferView": 2,
      "byteOffset": 4718304,
      "componentType": 5126,
      "count": 65532,
      "max": [
        21.198310852050781,
        23.997112274169922,
        13.991866111755371
      ],
      "min": [
        -1.3184880018234253,
        12.184476852416992,
        -10.664883613586426
      ],
      "type": "VEC3"
    },
    {
      "bufferView": 2,
      "byteOffset": 5504688,
      "componentType": 5126,
      "count": 65532,
      "max": [
        0.99971425533294678,
        0.99943661689758301,
        0.99999809265136719
      ],
      "min": [
        -0.99994122982025146,
        -0.99999922513961792,
        -0.99986410140991211
      ],
      "type": "VEC3"
    },
    {
      "bufferView": 3,
      "byteOffset": 6291072,
      "componentType": 5126,
      "count": 65532,
      "max": [
        0.99999815225601196,
        0.9999890923500061,
        0.99832528829574585,
        1
      ],
      "min": [
        -0.99978071451187134,
        -0.99918496608734131,
        -0.99999982118606567,
        -1
      ],
      "type": "VEC4"
    },
    {
      "bufferView": 3,
      "byteOffset": 7339584,
      "componentType": 5126,
      "count": 65532,
      "max": [
        0.99215686321258545,
        0.9843137264251709,
        0.9686274528503418,
        1
      ],
      "min": [
        0.027450980618596077,
        0.023529412224888802,
        0.011764706112444401,
        1
      ],
      "type": "VEC4"
    },
    {
      "bufferView": 1,
      "byteOffset": 1572768,
      "componentType": 5126,
      "count": 65532,
      "max": [
        0.93926799297332764,
        0.99315100908279419
      ],
      "min": [
        0.0063439998775720596,
        0.19171200692653656
      ],
      "type": "VEC2"
    },
    {
      "bufferView": 0,
      "byteOffset": 3812052,
      "componentType": 5125,
      "count": 321219,
      "max": [
        65531
      ],
      "min": [
        0
      ],
      "type": "SCALAR"
    },
    {
      "bufferView": 2,
      "byteOffset": 6291072,
      "componentType": 5126,
      "count": 65533,
      "max": [
        16.901500701904297,
        24.041667938232422,
        13.729398727416992
      ],
      "min": [
        -5.8700499534606934,
        12.194052696228027,
        -10.599068641662598
      ],
      "type": "VEC3"
    },
    {
      "bufferView": 2,
      "byteOffset": 7077468,
      "componentType": 5126,
      "count": 65533,
      "max": [
        0.99996399879455566,
        0.99952018260955811,
        0.99999898672103882
      ],
      "min": [
        -0.99978214502334595,
        -0.99999988079071045,
        -0.99991351366043091
      ],
      "type": "VEC3"
    },
    {
      "bufferView": 3,
      "byteOffset": 8388096,
      "componentType": 5126,
      "count": 65533,
      "max": [
        0.99999815225601196,
        0.99998438358306885,
        0.99996346235275269,
        1
      ],
      "min": [
        -0.99998372793197632,
        -0.99993342161178589,
        -0.99999690055847168,
        -1
      ],
      "type": "VEC4"
    },
    {
      "bufferView": 3,
      "byteOffset": 9436624,
      "componentType": 5126,
      "count": 65533,
      "max": [
        0.98823529481887817,
        0.98823529481887817,
        0.98039215803146362,
        1
      ],
      "min": [
        0.027450980618596077,
        0.027450980618596077,
        0.023529412224888802,
        1
      ],
      "type": "VEC4"
    },
    {
      "bufferView": 1,
      "byteOffset": 2097024,
      "componentType": 5126,
      "count": 65533,
      "max": [
        1,
        0.9976620078086853
      ],
      "min": [
        0.0008229999803006649,
        0.0089849997311830521
      ],
      "type": "VEC2"
    },
    {
      "bufferView": 0,
      "byteOffset": 5096928,
      "componentType": 5125,
      "count": 302862,
      "max": [
        65532
      ],
      "min": [
        0
      ],
      "type": "SCALAR"
    },
    {
      "bufferView": 2,
      "byteOffset": 7863864,
      "componentType": 5126,
      "count": 65532,
      "max": [
        10.976987838745117,
        24.187871932983398,
        13.791284561157227
      ],
      "min": [
        -6.8879060745239258,
        12.149979591369629,
        -10.544377326965332
      ],
      "type": "VEC3"
    },
    {
      "bufferView": 2,
      "byteOffset": 8650248,
      "componentType": 5126,
      "count": 65532,
      "max": [
        0.99912655353546143,
        0.99823600053787231,
        0.99999558925628662
      ],
      "min": [
        -0.9995502233505249,
        -0.99999940395355225,
        -0.99985462427139282
      ],
      "type": "VEC3"
    },
    {
      "bufferView": 3,
      "byteOffset": 10485152,
      "componentType": 5126,
      "count": 65532,
      "max": [
        0.99999988079071045,
        0.99998855590820312,
        0.99990272521972656,
        1
      ],
      "min": [
        -0.99810343980789185,
        -0.99982041120529175,
        -0.99999654293060303,
        -1
      ],
      "type": "VEC4"
    },
    {
      "bufferView": 3,
      "byteOffset": 11533664,
      "componentType": 5126,
      "count": 65532,
      "max": [
        0.99215686321258545,
        0.9843137264251709,
        0.99215686321258545,
        1
      ],
      "min": [
        0.023529412224888802,
        0.023529412224888802,
        0.015686275437474251,
        1
      ],
      "type": "VEC4"
    },
    {
      "bufferView": 1,
      "byteOffset": 2621288,
      "componentType": 5126,
      "count": 65532,
      "max": [
        0.99963998794555664,
        0.99668699502944946
      ],
      "min": [
        0.018747000023722649,
        0.032365001738071442
      ],
      "type": "VEC2"
    },
    {
      "bufferView": 0,
      "byteOffset": 6308376,
      "componentType": 5125,
      "count": 321093,
      "max": [
        65531
      ],
      "min": [
        0
      ],
      "type": "SCALAR"
    },
    {
      "bufferView": 2,
      "byteOffset": 9436632,
      "componentType": 5126,
      "count": 65532,
      "max": [
        5.9087867736816406,
        24.290763854980469,
        13.847038269042969
      ],
      "min": [
        -10.438420295715332,
        12.149979591369629,
        -10.474764823913574
      ],
      "type": "VEC3"
    },
    {
      "bufferView": 2,
      "byteOffset": 10223016,
      "componentType": 5126,
      "count": 65532,
      "max": [
        0.99985241889953613,
        0.99935424327850342,
        0.99999153614044189
      ],
      "min": [
        -0.99984878301620483,
        -0.99999874830245972,
        -0.99995344877243042
      ],
      "type": "VEC3"
    },
    {
      "bufferView": 3,
      "byteOffset": 12582176,
      "componentType": 5126,
      "count": 65532,
      "max": [
        0.99999934434890747,
        0.99997079372406006,
        0.99997496604919434,
        1
      ],
      "min": [
        -0.99839138984680176,
        -0.99982637166976929,
        -0.99999785423278809,
        -1
      ],
      "type": "VEC4"
    },
    {
      "bufferView": 3,
      "byteOffset": 13630688,
      "componentType": 5126,
      "count": 65532,
      "max": [
        0.98039215803146362,
        0.97254902124404907,
        0.99607843160629272,
        1
      ],
      "min": [
        0.019607843831181526,
        0.023529412224888802,
        0.015686275437474251,
        1
      ],
      "type": "VEC4"
    },
    {
      "bufferView": 1,
      "byteOffset": 3145544,
      "componentType": 5126,
      "count": 65532,
      "max": [
        0.99900698661804199,
        0.99376797676086426
      ],
      "min": [
        0.021445000544190407,
        0.03492400050163269
      ],
      "type": "VEC2"
    },
    {
      "bufferView": 0,
      "byteOffset": 7592748,
      "componentType": 5125,
      "count": 293928,
      "max": [
        65531
      ],
      "min": [
        0
      ],
      "type": "SCALAR"
    },
    {
      "bufferView": 2,
      "byteOffset": 11009400,
      "componentType": 5126,
      "count": 65532,
      "max": [
        -0.57030302286148071,
        24.83036994934082,
        13.818355560302734
      ],
      "min": [
        -11.704224586486816,
        12.154251098632812,
        -10.390741348266602
      ],
      "type": "VEC3"
    },
    {
      "bufferView": 2,
      "byteOffset": 11795784,
      "componentType": 5126,
      "count": 65532,
      "max": [
        0.99996137619018555,
        0.99999821186065674,
        0.99999904632568359
      ],
      "min": [
        -0.99990147352218628,
        -0.99999898672103882,
        -0.99999380111694336
      ],
      "type": "VEC3"
    },
    {
      "bufferView": 3,
      "byteOffset": 14679200,
      "componentType": 5126,
      "count": 65532,
      "max": [
        0.99999696016311646,
        0.99987614154815674,
        0.99999988079071045,
        1
      ],
      "min": [
        -0.99984782934188843,
        -0.99999672174453735,
        -0.9999854564666748,
        -1
      ],
      "type": "VEC4"
    },
    {
      "bufferView": 3,
      "byteOffset": 15727712,
      "componentType": 5126,
      "count": 65532,
      "max": [
        0.99215686321258545,
        0.99607843160629272,
        0.98823529481887817,
        1
      ],
      "min": [
        0.043137256056070328,
        0.043137256056070328,
        0.035294119268655777,
        1
      ],
      "type": "VEC4"
    },
    {
      "bufferView": 1,
      "byteOffset": 3669800,
      "componentType": 5126,
      "count": 65532,
      "max": [
        0.990090012550354,
        0.99585801362991333
      ],
      "min": [
        0.13436999917030334,
        0.00073899998096749187
      ],
      "type": "VEC2"
    },
    {
      "bufferView": 0,
      "byteOffset": 8768460,
      "componentType": 5125,
      "count": 314343,
      "max": [
        65531
      ],
      "min": [
        0
      ],
      "type": "SCALAR"
    },
    {
      "bufferView": 2,
      "byteOffset": 12582168,
      "componentType": 5126,
      "count": 62280,
      "max": [
        20.137048721313477,
        25.087802886962891,
        13.82658863067627
      ],
      "min": [
        -11.675772666931152,
        12.146048545837402,
        -10.414637565612793
      ],
      "type": "VEC3"
    },
    {
      "bufferView": 2,
      "byteOffset": 13329528,
      "componentType": 5126,
      "count": 62280,
      "max": [
        0.99996137619018555,
        0.9946252703666687,
        0.99998581409454346
      ],
      "min": [
        -0.99976193904876709,
        -0.99999183416366577,
        -0.99991041421890259
      ],
      "type": "VEC3"
    },
    {
      "bufferView": 3,
      "byteOffset": 16776224,
      "componentType": 5126,
      "count": 62280,
      "max": [
        0.99992853403091431,
        0.99951285123825073,
        0.99998825788497925,
        1
      ],
      "min": [
        -0.99998170137405396,
        -0.99998974800109863,
        -0.99998509883880615,
        -1
      ],
      "type": "VEC4"
    },
    {
      "bufferView": 3,
      "byteOffset": 17772704,
      "componentType": 5126,
      "count": 62280,
      "max": [
        0.98039215803146362,
        0.9843137264251709,
        0.9843137264251709,
        1
      ],
      "min": [
        0.054901961237192154,
        0.054901961237192154,
        0.050980392843484879,
        1
      ],
      "type": "VEC4"
    },
    {
      "bufferView": 1,
      "byteOffset": 4194056,
      "componentType": 5126,
      "count": 62280,
      "max": [
        0.9999309778213501,
        0.99002599716186523
      ],
      "min": [
        0.0011899999808520079,
        0.0008800000068731606
      ],
      "type": "VEC2"
    },
    {
      "bufferView": 0,
      "byteOffset": 10025832,
      "componentType": 5125,
      "count": 276018,
      "max": [
        62279
      ],
      "min": [
        0
      ],
      "type": "SCALAR"
    }
  ],
  "asset": {
    "extras": {
      "author": "debmayers24 (https://sketchfab.com/debmayers24)",
      "license": "CC-BY-ND-4.0 (http://creativecommons.org/licenses/by-nd/4.0/)",
      "source": "https://sketchfab.com/3d-models/glasgow-mural-on-york-street-2cc2ce8cde314723a1a7bfd487524dd6",
      "title": "Glasgow Mural on York Street"
    },
    "generator": "Sketchfab-6.49.1",
    "version": "2.0"
  },
  "bufferViews": [
    {
      "buffer": 0,
      "byteLength": 11129904,
      "byteOffset": 0,
      "name": "floatBufferViews",
      "target": 34963
    },
    {
      "buffer": 0,
      "byteLength": 4692296,
      "byteOffset": 11129904,
      "byteStride": 8,
      "name": "floatBufferViews",
      "target": 34962
    },
    {
      "buffer": 0,
      "byteLength": 14076888,
      "byteOffset": 15822200,
      "byteStride": 12,
      "name": "floatBufferViews",
      "target": 34962
    },
    {
      "buffer": 0,
      "byteLength": 18769184,
      "byteOffset": 29899088,
      "byteStride": 16,
      "name": "floatBufferViews",
      "target": 34962
    }
  ],
  "buffers": [
    {
      "byteLength": 48668272,
      "uri": "YorkStreet.bin"
    }
  ],
  "extensionsUsed": [
    "KHR_materials_unlit"
  ],
  "images": [
    {
      "uri": "textures/mural_YorkStreet_baseColor.jpeg"
    }
  ],
  "materials": [
    {
      "doubleSided": true,
      "emissiveFactor": [
        0,
        0,
        0
      ],
      "extensions": {
        "KHR_materials_unlit": {}
      },
      "name": "mural_YorkStreet",
      "pbrMetallicRoughness": {
        "baseColorFactor": [
          1,
          1,
          1,
          1
        ],
        "baseColorTexture": {
          "index": 0,
          "texCoord": 0
        },
        "metallicFactor": 0,
        "roughnessFactor": 1
      }
    }
  ],
  "meshes": [
    {
      "primitives": [
        {
          "attributes": {
            "COLOR_0": 3,
            "NORMAL": 1,
            "POSITION": 0,
            "TANGENT": 2,
            "TEXCOORD_0": 4
          },
          "indices": 5,
          "material": 0,
          "mode": 4
        }
      ]
    },
    {
      "primitives": [
        {
          "attributes": {
            "COLOR_0": 9,
            "NORMAL": 7,
            "POSITION": 6,
            "TANGENT": 8,
            "TEXCOORD_0": 10
          },
          "indices": 11,
          "material": 0,
          "mode": 4
        }
      ]
    },
    {
      "primitives": [
        {
          "attributes": {
            "COLOR_0": 15,
            "NORMAL": 13,
            "POSITION": 12,
            "TANGENT": 14,
            "TEXCOORD_0": 16
          },
          "indices": 17,
          "material": 0,
          "mode": 4
        }
      ]
    },
    {
      "primitives": [
        {
          "attributes": {
            "COLOR_0": 21,
            "NORMAL": 19,
            "POSITION": 18,
            "TANGENT": 20,
            "TEXCOORD_0": 22
          },
          "indices": 23,
          "material": 0,
          "mode": 4
        }
      ]
    },
    {
      "primitives": [
        {
          "attributes": {
            "COLOR_0": 27,
            "NORMAL": 25,
            "POSITION": 24,
            "TANGENT": 26,
            "TEXCOORD_0": 28
          },
          "indices": 29,
          "material": 0,
          "mode": 4
        }
      ]
    },
    {
      "primitives": [
        {
          "attributes": {
            "COLOR_0": 33,
            "NORMAL": 31,
            "POSITION": 30,
            "TANGENT": 32,
            "TEXCOORD_0": 34
          },
          "indices": 35,
          "material": 0,
          "mode": 4
        }
      ]
    },
    {
      "primitives": [
        {
          "attributes": {
            "COLOR_0": 39,
            "NORMAL": 37,
            "POSITION": 36,
            "TANGENT": 38,
            "TEXCOORD_0": 40
          },
          "indices": 41,
          "material": 0,
          "mode": 4
        }
      ]
    },
    {
      "primitives": [
        {
          "attributes": {
            "COLOR_0": 45,
            "NORMAL": 43,
            "POSITION": 42,
            "TANGENT": 44,
            "TEXCOORD_0": 46
          },
          "indices": 47,
          "material": 0,
          "mode": 4
        }
      ]
    },
    {
      "primitives": [
        {
          "attributes": {
            "COLOR_0": 51,
            "NORMAL": 49,
            "POSITION": 48,
            "TANGENT": 50,
            "TEXCOORD_0": 52
          },
          "indices": 53,
          "material": 0,
          "mode": 4
        }
      ]
    }
  ],
  "nodes": [
    {
      "children": [
        1
      ],
      "name": "RootNode (gltf orientation matrix)",
      "rotation": [
        -0.70710678118654746,
        -0,
        -0,
        0.70710678118654757
      ]
    },
    {
      "children": [
        2
      ],
      "name": "RootNode (model correction matrix)"
    },
    {
      "children": [
        3,
        4,
        5,
        6,
        7,
        8,
        9,
        10,
        11
      ],
      "name": "mural_YorkStreet.obj.cleaner.materialmerger.gles"
    },
    {
      "mesh": 0,
      "name": ""
    },
    {
      "mesh": 1,
      "name": ""
    },
    {
      "mesh": 2,
      "name": ""
    },
    {
      "mesh": 3,
      "name": ""
    },
    {
      "mesh": 4,
      "name": ""
    },
    {
      "mesh": 5,
      "name": ""
    },
    {
      "mesh": 6,
      "name": ""
    },
    {
      "mesh": 7,
      "name": ""
    },
    {
      "mesh": 8,
      "name": ""
    }
  ],
  "samplers": [
    {
      "magFilter": 9729,
      "minFilter": 9987,
      "wrapS": 10497,
      "wrapT": 10497
    }
  ],
  "scene": 0,
  "scenes": [
    {
      "name": "OSG_Scene",
      "nodes": [
        0
      ]
    }
  ],
  "textures": [
    {
      "sampler": 0,
      "source": 0
    }
  ]
}

